<svg viewBox="0 0 1200 630" xmlns="http://www.w3.org/2000/svg">
  <defs>
    <linearGradient id="bg13" x1="0" y1="0" x2="1200" y2="630" gradientUnits="userSpaceOnUse">
      <stop offset="0" stop-color="#EEF2FF"/>
      <stop offset="1" stop-color="#C7D2FE"/>
    </linearGradient>
  </defs>
  <rect width="1200" height="630" fill="url(#bg13)"/>

  <!-- three page cards -->
  <rect x="140" y="220" width="180" height="130" rx="14" fill="#FFFFFF" stroke="#4F46E5" stroke-width="3"/>
  <text x="230" y="270" text-anchor="middle" font-family="sans-serif" font-size="18" font-weight="bold" fill="#3730A3">EN</text>
  <rect x="165" y="290" width="130" height="10" rx="5" fill="#C7D2FE"/>
  <rect x="165" y="308" width="100" height="10" rx="5" fill="#C7D2FE"/>

  <rect x="510" y="220" width="180" height="130" rx="14" fill="#FFFFFF" stroke="#4F46E5" stroke-width="3"/>
  <text x="600" y="270" text-anchor="middle" font-family="sans-serif" font-size="18" font-weight="bold" fill="#3730A3">FR</text>
  <rect x="535" y="290" width="130" height="10" rx="5" fill="#C7D2FE"/>
  <rect x="535" y="308" width="100" height="10" rx="5" fill="#C7D2FE"/>

  <rect x="880" y="220" width="180" height="130" rx="14" fill="#FFFFFF" stroke="#4F46E5" stroke-width="3"/>
  <text x="970" y="270" text-anchor="middle" font-family="sans-serif" font-size="18" font-weight="bold" fill="#3730A3">ES</text>
  <rect x="905" y="290" width="130" height="10" rx="5" fill="#C7D2FE"/>
  <rect x="905" y="308" width="100" height="10" rx="5" fill="#C7D2FE"/>

  <!-- connecting arrows both ways -->
  <g stroke="#818CF8" stroke-width="2.5" fill="none">
    <path d="M320 260 L510 260"/>
    <path d="M320 310 L510 310"/>
    <path d="M690 260 L880 260"/>
    <path d="M690 310 L880 310"/>
    <path d="M320 340 Q600 420 880 340"/>
  </g>

  <text x="600" y="510" text-anchor="middle" font-family="sans-serif" font-size="30" font-weight="bold" fill="#3730A3">Hreflang Tags</text>
  <text x="600" y="548" text-anchor="middle" font-family="sans-serif" font-size="18" fill="#4338CA">A beginner's guide for international SEO</text>
</svg>